<svg xmlns="http://www.w3.org/2000/svg" viewBox="0 0 1920.44 283.08"><path d="M26.3,278.44V128H0V86.63H26.3V64.2q0-34.81,17.59-49.5T91.65,0h21.27V42.15H99.39q-12.76,0-18.18,5t-5.41,17V86.63h41.38V128H75.8V278.44Zm129.94,0V0h49.5V278.44Z" transform="translate(0 0)" fill="#fff"/><path d="M339.93,283.08q-29,0-51.44-12.37A89.57,89.57,0,0,1,253.3,235.9q-12.77-22.43-12.76-51.82,0-29.78,12.57-53a91.22,91.22,0,0,1,34.8-36.16Q310.15,82,340.31,82q28.23,0,49.89,12.37A88.85,88.85,0,0,1,424,128.2q12.18,21.47,12.18,47.76,0,4.26-.19,8.89c-.13,3.1-.33,6.32-.58,9.67H289.65q1.55,22.44,15.67,35.19t34.22,12.77q15.09,0,25.33-6.77a42,42,0,0,0,15.28-17.6h50.27a91.24,91.24,0,0,1-18,33.07,88.64,88.64,0,0,1-30.94,23.39Q363.13,283.08,339.93,283.08Zm.38-160.87a52.69,52.69,0,0,0-32.09,10.24q-13.94,10.26-17.79,31.13H386q-1.17-18.93-13.92-30.16T340.31,122.21Z" transform="translate(0 0)" fill="#fff"/><path d="M437,278.44l69.61-95.91L437,86.63h53l48.72,68.06L587,86.63h53.37l-70,95.9,70,95.91H587L538.7,210.38,490,278.44Z" transform="translate(0 0)" fill="#fff"/><path d="M740.66,283.08q-29,0-51.44-12.32A89.53,89.53,0,0,1,654,236q-12.78-22.41-12.81-51.8,0-29.77,12.52-53A91.29,91.29,0,0,1,688.47,95q22.21-13,52.38-13,28.23,0,49.9,12.33a88.78,88.78,0,0,1,33.87,33.81q12.21,21.45,12.23,47.74c0,2.84-.06,5.8-.18,8.9s-.32,6.32-.57,9.67l-145.8.14Q691.88,217,706,229.75t34.24,12.72q15.07,0,25.32-6.79a41.91,41.91,0,0,0,15.26-17.61l50.27,0a91.06,91.06,0,0,1-18,33.08,88.54,88.54,0,0,1-30.91,23.43Q763.87,283,740.66,283.08Zm.23-160.88a52.74,52.74,0,0,0-32.08,10.28q-13.92,10.28-17.76,31.15l95.52-.09q-1.19-18.94-14-30.15T740.89,122.2Z" transform="translate(0 0)" fill="#d94d14"/><path d="M948.23,283.08q-25.51,0-44.86-8.31t-30.93-23a66.61,66.61,0,0,1-13.93-34H908.4Q910.73,229,921,236.87t26.49,7.93q16.24,0,23.78-6.58t7.54-15.08q0-12.37-10.82-16.82t-30.17-8.7q-12.37-2.7-25.14-6.58a115.43,115.43,0,0,1-23.39-9.86,50.92,50.92,0,0,1-17.21-15.47q-6.59-9.47-6.58-23.39,0-25.53,20.31-42.93t57-17.4q34,0,54.33,15.85t24.17,43.7H974.53q-4.26-21.25-32.1-21.27-13.92,0-21.46,5.41t-7.54,13.54q0,8.5,11.21,13.54T954.42,162q20.1,4.64,36.93,10.25t26.88,16.62q10.05,11,10.06,31.52a54,54,0,0,1-9.29,32.1q-9.66,14.31-27.84,22.43T948.23,283.08Z" transform="translate(0 0)" fill="#fff"/><path d="M1155.52,283.08q-29,0-51.44-12.37a89.57,89.57,0,0,1-35.19-34.81q-12.77-22.43-12.76-51.82,0-29.78,12.57-53a91.16,91.16,0,0,1,34.8-36.16q22.23-12.94,52.4-13,28.23,0,49.89,12.37a88.92,88.92,0,0,1,33.84,33.84q12.18,21.47,12.18,47.76c0,2.84-.07,5.8-.19,8.89s-.33,6.32-.58,9.67h-145.8q1.54,22.44,15.66,35.19t34.23,12.77q15.07,0,25.33-6.77a41.91,41.91,0,0,0,15.27-17.6H1246a91.24,91.24,0,0,1-18,33.07,88.73,88.73,0,0,1-30.94,23.39Q1178.71,283.08,1155.52,283.08Zm.38-160.87a52.74,52.74,0,0,0-32.1,10.24q-13.92,10.26-17.79,31.13h95.53q-1.17-18.93-13.93-30.16T1155.9,122.21Z" transform="translate(0 0)" fill="#fff"/><path d="M1283.9,278.44V86.63H1328l4.64,36A80.35,80.35,0,0,1,1361.05,93q18-11,42.35-11v52.2h-13.92a78.71,78.71,0,0,0-29,5,39.12,39.12,0,0,0-19.91,17.4Q1333.39,169,1333.4,191v87.4Z" transform="translate(0 0)" fill="#fff"/><path d="M1485.8,278.44,1415.41,86.63h51.82l48.73,145,48.73-145h51.82l-70.77,191.81Z" transform="translate(0 0)" fill="#fff"/><path d="M1722.09,283.08q-29,0-51.44-12.37a89.57,89.57,0,0,1-35.19-34.81q-12.76-22.43-12.76-51.82,0-29.78,12.57-53a91.16,91.16,0,0,1,34.8-36.16q22.23-12.94,52.4-13,28.23,0,49.89,12.37a88.85,88.85,0,0,1,33.84,33.84q12.18,21.47,12.18,47.76,0,4.26-.19,8.89t-.58,9.67h-145.8q1.55,22.44,15.66,35.19t34.23,12.77q15.08,0,25.33-6.77a42,42,0,0,0,15.28-17.6h50.27a91.24,91.24,0,0,1-18,33.07,88.64,88.64,0,0,1-30.94,23.39Q1745.29,283.08,1722.09,283.08Zm.38-160.87a52.69,52.69,0,0,0-32.09,10.24q-13.94,10.26-17.79,31.13h95.52q-1.17-18.93-13.93-30.16T1722.47,122.21Z" transform="translate(0 0)" fill="#fff"/><path d="M1850.05,79V24.36h20a23.22,23.22,0,0,1,10.81,2.22,14.94,14.94,0,0,1,6.36,6,17.49,17.49,0,0,1-.5,17.52,14.84,14.84,0,0,1-8.16,6L1889.93,79h-11.47l-10.15-21.54H1860V79Zm10-28.88h9.44c3.33,0,5.78-.8,7.34-2.42a8.8,8.8,0,0,0,2.34-6.4,8.53,8.53,0,0,0-2.3-6.24c-1.54-1.56-4-2.34-7.46-2.34H1860Z" transform="translate(0 0)" fill="#fff"/><path d="M1913.53,25.78a47.77,47.77,0,0,0-19.34-19.14c-16.46-8.86-34.36-8.85-50.81,0A48,48,0,0,0,1824,25.77a51.72,51.72,0,0,0-.11,51.6,48.62,48.62,0,0,0,19.17,19.17,52,52,0,0,0,51.42,0,48.36,48.36,0,0,0,19.14-19.17,51.93,51.93,0,0,0-.1-51.59Zm-44.74,67a41.66,41.66,0,0,1-20.47-5.47,39,39,0,0,1-15.23-15.19,41,41,0,0,1,.1-41,38.34,38.34,0,0,1,15.37-15.19,40.9,40.9,0,0,1,40.43,0,37.84,37.84,0,0,1,15.33,15.18,41.13,41.13,0,0,1,.11,41h0a38.38,38.38,0,0,1-15.18,15.19A41.61,41.61,0,0,1,1868.79,92.77Z" transform="translate(0 0)" fill="#fff"/></svg>